<svg xmlns="http://www.w3.org/2000/svg" viewBox="0 0 512 512">
<defs><linearGradient id="b" x1="0" y1="0" x2="1" y2="1"><stop stop-color="#0b2734"/><stop offset="1" stop-color="#02070b"/></linearGradient><linearGradient id="m" x1="0" y1="0" x2="1" y2="1"><stop stop-color="#e8f8fb"/><stop offset=".42" stop-color="#54717d"/><stop offset="1" stop-color="#14232b"/></linearGradient></defs>
<rect width="512" height="512" rx="108" fill="url(#b)"/><circle cx="256" cy="256" r="190" fill="none" stroke="#5de6ff" stroke-opacity=".16" stroke-width="4"/><circle cx="256" cy="256" r="132" fill="none" stroke="#5de6ff" stroke-opacity=".12" stroke-width="3"/>
<path d="M256 68 300 168 422 258 332 278 306 395 256 356 206 395 180 278 90 258 212 168Z" fill="url(#m)" stroke="#c7eef6" stroke-width="7"/><path d="M256 94 273 194 256 252 239 194Z" fill="#56e6ff"/><path d="m188 244 68 45 68-45-35 83h-66Z" fill="#0c3040" stroke="#55dff5" stroke-width="5"/><circle cx="256" cy="303" r="17" fill="#80f3ff"/><path d="m246 391 10 48 10-48" fill="#5de6ff" stroke="#5de6ff" stroke-width="9" stroke-linecap="round"/>
</svg>
